<svg xmlns="http://www.w3.org/2000/svg" xmlns:xlink="http://www.w3.org/1999/xlink" width="347.21" height="86.27" viewBox="0 0 347.21 86.27">
  <defs>
    <clipPath id="clip-path">
      <rect id="Rectangle_225" data-name="Rectangle 225" width="347.21" height="86.27" transform="translate(3.11 3)" fill="none"/>
    </clipPath>
  </defs>
  <g id="Logotype_Primary" transform="translate(-3.11 -3)" clip-path="url(#clip-path)">
    <path id="Path_256" data-name="Path 256" d="M27.86,45.49c4.4,5.39,9.2,10.87,13.89,16l-5.71.06c8.89-8.15,16.73-17.26,24.41-26.5,4.56-5.53,9.12-11.25,13.26-17.1a4.378,4.378,0,0,1,6.63-.56l.68.69c8.63,13.48,10.5,30.71,3.8,45.22C76.25,82.65,53.14,93.88,32.39,87.45,10.11,80.82-.48,59.05,4.2,37.24,10.42,9.46,40.94-4.79,66.98,7.37a4.22,4.22,0,0,1,2.13,5.67,4.334,4.334,0,0,1-6.15,1.82,34.036,34.036,0,0,0-12.54-4.49,37.511,37.511,0,0,0-13.52.47C18.37,14.75,5.08,33.3,8.72,51.95c1.81,8.92,7.14,16.73,14.07,22.54C46.59,94,83.38,79.44,84.16,48.22c.11-9.04-3.66-18.24-10.55-24.12-.02-.01,7.31.13,7.3.12A369.654,369.654,0,0,0,50.77,55.28c-3.1,3.66-6.17,7.36-8.97,11.29a3.849,3.849,0,0,1-5.37.39c-4.94-5.12-10.12-10.47-15.32-15.34a4.487,4.487,0,0,1-.17-6.4,4.639,4.639,0,0,1,6.91.29" fill="#0094c6"/>
    <g id="Group_378" data-name="Group 378">
      <path id="Path_257" data-name="Path 257" d="M103.84,22.06c0-9.96,7.51-18.45,19.62-18.45A18.368,18.368,0,0,1,134.4,6.98a2.2,2.2,0,0,1,.51,3.42l-1.28,1.58c-.92,1.28-2.04,1.28-3.42.46a13.941,13.941,0,0,0-6.75-1.79c-7.15,0-11.5,5.11-11.5,11.4s4.34,11.4,11.5,11.4a13.861,13.861,0,0,0,6.75-1.79c1.38-.82,2.5-.82,3.42.46l1.28,1.58c.92,1.33.87,2.45-.26,3.27a18.264,18.264,0,0,1-11.19,3.53c-12.11,0-19.62-8.48-19.62-18.45Z" fill="#283583"/>
      <path id="Path_258" data-name="Path 258" d="M137.26,22.06c0-10.07,7.77-18.45,18.96-18.45s18.96,8.38,18.96,18.45-7.77,18.45-18.96,18.45-18.96-8.38-18.96-18.45Zm29.79,0c0-6.34-4.5-11.4-10.83-11.4s-10.78,5.06-10.78,11.4,4.45,11.4,10.78,11.4S167.05,28.4,167.05,22.06Z" fill="#283583"/>
      <path id="Path_259" data-name="Path 259" d="M178.54,26.4V6.63a2.247,2.247,0,0,1,2.5-2.45h3.17a2.21,2.21,0,0,1,2.45,2.45V26.41c0,4.65,3.07,7.05,6.69,7.05s6.75-2.4,6.75-7.05V6.63a2.247,2.247,0,0,1,2.5-2.45h3.17a2.21,2.21,0,0,1,2.45,2.45V26.41c0,9.2-6.8,14.1-14.87,14.1s-14.82-4.91-14.82-14.1Z" fill="#283583"/>
      <path id="Path_260" data-name="Path 260" d="M213.75,37.49V6.63a2.247,2.247,0,0,1,2.5-2.45h1.84a3.39,3.39,0,0,1,3.02,1.53l14.36,19.73V6.63a2.247,2.247,0,0,1,2.5-2.45h3.17a2.21,2.21,0,0,1,2.45,2.45V37.5a2.21,2.21,0,0,1-2.45,2.45H239.3a3.28,3.28,0,0,1-2.96-1.53L221.88,18.49V37.5a2.21,2.21,0,0,1-2.45,2.45h-3.17a2.247,2.247,0,0,1-2.5-2.45Z" fill="#283583"/>
      <path id="Path_261" data-name="Path 261" d="M277.01,6.63V8.57a2.247,2.247,0,0,1-2.5,2.45h-8.28V37.49a2.21,2.21,0,0,1-2.45,2.45h-3.07a2.21,2.21,0,0,1-2.45-2.45V11.02h-8.18a2.21,2.21,0,0,1-2.45-2.45V6.63a2.21,2.21,0,0,1,2.45-2.45h24.43a2.247,2.247,0,0,1,2.5,2.45Z" fill="#283583"/>
      <path id="Path_262" data-name="Path 262" d="M289.12,11.02v8.07h11.55a2.21,2.21,0,0,1,2.45,2.45v1.38a2.247,2.247,0,0,1-2.45,2.5H289.12v7.67h13.64a2.21,2.21,0,0,1,2.45,2.45v1.94a2.21,2.21,0,0,1-2.45,2.45H283.5a2.247,2.247,0,0,1-2.5-2.45V6.63a2.247,2.247,0,0,1,2.5-2.45h19.26a2.21,2.21,0,0,1,2.45,2.45V8.57a2.21,2.21,0,0,1-2.45,2.45H289.12Z" fill="#283583"/>
      <path id="Path_263" data-name="Path 263" d="M323.61,27.17h-4.75V37.49a2.21,2.21,0,0,1-2.45,2.45h-3.17a2.247,2.247,0,0,1-2.5-2.45V6.63a2.247,2.247,0,0,1,2.5-2.45h13.75c7.61,0,11.86,5.42,11.86,11.91,0,5.26-2.91,9.4-7.92,10.68.41,3.63,2.45,7.26,5.42,7.26a5.058,5.058,0,0,0,2.35-.41c1.48-.51,2.09-.2,2.76,1.18l.46,1.02c.67,1.38.51,2.56-.77,3.27a13.379,13.379,0,0,1-6.13,1.43c-8.84,0-10.99-9.3-11.4-13.34Zm2.25-5.83c2.91,0,4.75-2.25,4.75-5.11s-1.89-5.21-4.75-5.21h-7V21.34Z" fill="#283583"/>
    </g>
    <g id="Group_379" data-name="Group 379">
      <path id="Path_264" data-name="Path 264" d="M105.52,84.61l3.07-32.09a1.7,1.7,0,0,1,1.89-1.74h2.71a2.035,2.035,0,0,1,2.1,1.43l11.14,26.62,11.09-26.62a2.087,2.087,0,0,1,2.15-1.43h2.66a1.715,1.715,0,0,1,1.94,1.74l3.02,32.09a1.6,1.6,0,0,1-1.79,1.94h-1.69a1.756,1.756,0,0,1-1.99-1.74L139.62,59,128.99,84.65a2.106,2.106,0,0,1-2.15,1.43h-.87a2.054,2.054,0,0,1-2.1-1.43L113.24,59l-2.25,25.81a1.725,1.725,0,0,1-1.94,1.74h-1.69a1.637,1.637,0,0,1-1.84-1.94Z" fill="#283583"/>
      <path id="Path_265" data-name="Path 265" d="M159.13,55.22v11.6h13.39a1.665,1.665,0,0,1,1.84,1.84v.66a1.7,1.7,0,0,1-1.84,1.89H159.13V82.09h15.64a1.693,1.693,0,0,1,1.84,1.84v.77a1.693,1.693,0,0,1-1.84,1.84H155.56a1.665,1.665,0,0,1-1.84-1.84V52.61a1.67,1.67,0,0,1,1.84-1.84h19.21a1.7,1.7,0,0,1,1.84,1.84v.77a1.693,1.693,0,0,1-1.84,1.84H159.13Z" fill="#283583"/>
      <path id="Path_266" data-name="Path 266" d="M209.51,52.62v.77a1.67,1.67,0,0,1-1.84,1.84h-9.96V84.71a1.665,1.665,0,0,1-1.84,1.84h-1.69a1.67,1.67,0,0,1-1.84-1.84V55.23h-9.96a1.693,1.693,0,0,1-1.84-1.84v-.77a1.7,1.7,0,0,1,1.84-1.84h25.3a1.674,1.674,0,0,1,1.84,1.84Z" fill="#283583"/>
      <path id="Path_267" data-name="Path 267" d="M225.76,73.11h-7.05v11.6a1.665,1.665,0,0,1-1.84,1.84h-1.74a1.67,1.67,0,0,1-1.84-1.84V52.62a1.674,1.674,0,0,1,1.84-1.84h13.24c6.9,0,10.88,5.21,10.88,11.29,0,5.31-3.07,9.76-8.38,10.78.36,3.88,2.76,9.71,6.64,9.71a5.2,5.2,0,0,0,2.61-.61c1.12-.51,1.89-.41,2.45.67l.26.46a1.808,1.808,0,0,1-.56,2.55,9.211,9.211,0,0,1-5.16,1.48c-8.43,0-10.99-9.71-11.34-14Zm1.53-4.3c3.94,0,6.34-2.81,6.34-6.74s-2.45-6.85-6.34-6.85h-8.58V68.81Z" fill="#283583"/>
      <path id="Path_268" data-name="Path 268" d="M246.45,84.71V52.62a1.67,1.67,0,0,1,1.84-1.84h1.74a1.674,1.674,0,0,1,1.84,1.84V84.71a1.67,1.67,0,0,1-1.84,1.84h-1.74A1.665,1.665,0,0,1,246.45,84.71Z" fill="#283583"/>
      <path id="Path_269" data-name="Path 269" d="M257.59,68.66c0-9.96,7.21-18.45,19.37-18.45a18.185,18.185,0,0,1,10.42,2.91,1.744,1.744,0,0,1,.61,2.55l-.46.82a1.658,1.658,0,0,1-2.56.61,17.4,17.4,0,0,0-8.02-2.04c-8.79,0-13.85,6.23-13.85,13.59s5.06,13.59,13.85,13.59a17.528,17.528,0,0,0,8.02-2.04,1.667,1.667,0,0,1,2.56.61l.46.82c.56,1.07.46,1.79-.31,2.35a18.193,18.193,0,0,1-10.73,3.12c-12.16,0-19.37-8.48-19.37-18.45Z" fill="#283583"/>
      <path id="Path_270" data-name="Path 270" d="M291.52,79.85a1.583,1.583,0,0,1,1.23-2.3l1.48-.36c1.12-.26,1.74.15,2.3,1.23a8.559,8.559,0,0,0,7.56,3.94c4.6,0,7.41-2.25,7.41-5.31,0-2.71-2.25-4.39-5.16-5.47l-5.31-1.79c-6.75-2.25-8.38-6.29-8.38-9.61,0-6.18,5.42-9.96,11.6-9.96,5.62,0,9.61,2.71,11.24,6.74a1.605,1.605,0,0,1-1.23,2.3l-1.28.41a1.8,1.8,0,0,1-2.35-1.18c-1.18-2.35-3.37-3.47-6.34-3.47-3.37,0-6.18,1.84-6.18,5.01,0,1.48.46,3.42,4.55,4.96l5.32,1.99c6.03,1.89,8.79,5.88,8.79,9.71,0,6.44-5.11,10.42-12.57,10.42-6.34,0-10.83-3.07-12.67-7.26Z" fill="#283583"/>
    </g>
  </g>
</svg>
